<svg width="937" height="655" viewBox="0 0 937 655" fill="none" xmlns="http://www.w3.org/2000/svg">
<rect x="74.3668" y="639.544" width="208.222" height="14.873" fill="#B8A590"/>
<rect x="282.585" y="624.67" width="193.349" height="14.873" fill="#B8A590"/>
<rect x="475.934" y="639.544" width="208.222" height="14.873" fill="#B8A590"/>
<rect x="684.157" y="624.67" width="74.365" height="14.873" fill="#B8A590"/>
<rect x="758.518" y="639.544" width="133.857" height="14.873" fill="#B8A590"/>
<rect width="14.873" height="356.952" transform="matrix(-1 0 0 1 29.7443 89.2458)" fill="#B8A590"/>
<rect x="29.7443" y="446.2" width="14.873" height="178.476" fill="#B8A590"/>
<rect x="892.38" y="535.435" width="14.873" height="104.111" fill="#B8A590"/>
<rect x="907.254" y="237.977" width="14.873" height="297.46" fill="#B8A590"/>
<rect x="892.38" y="193.36" width="14.873" height="44.619" fill="#B8A590"/>
<rect x="877.506" y="148.737" width="14.873" height="44.619" fill="#B8A590"/>
<rect x="892.38" y="133.863" width="29.746" height="14.873" fill="#B8A590"/>
<rect x="922.123" y="44.6233" width="14.873" height="89.238" fill="#B8A590"/>
<rect x="907.254" y="29.7542" width="14.873" height="14.873" fill="#B8A590"/>
<rect x="654.409" y="14.88" width="252.841" height="14.873" fill="#B8A590"/>
<rect x="550.299" y="29.7542" width="104.111" height="14.873" fill="#B8A590"/>
<rect x="133.853" y="14.88" width="416.444" height="14.873" fill="#B8A590"/>
<rect x="89.2359" y="29.7542" width="44.619" height="14.873" fill="#B8A590"/>
<rect x="74.3668" y="44.6233" width="14.873" height="29.746" fill="#B8A590"/>
<rect x="29.7443" y="74.3716" width="44.619" height="14.873" fill="#B8A590"/>
<rect x="44.6133" y="624.67" width="29.746" height="14.873" fill="#B8A590"/>
<rect x="133.853" y="29.7542" width="416.444" height="594.92" fill="#B8A590"/>
<rect x="89.2359" y="44.6233" width="44.619" height="580.047" fill="#B8A590"/>
<rect x="44.6133" y="89.2458" width="44.619" height="356.952" fill="#B8A590"/>
<rect x="29.7443" y="89.2458" width="14.873" height="356.952" fill="#B8A590"/>
<rect x="892.38" y="237.977" width="14.873" height="297.46" fill="#B8A590"/>
<rect x="892.38" y="44.6233" width="29.746" height="89.238" fill="#B8A590"/>
<rect x="44.6133" y="446.2" width="44.619" height="178.476" fill="#B8A590"/>
<rect x="74.3668" y="624.67" width="208.222" height="14.873" fill="#B8A590"/>
<rect x="475.934" y="624.67" width="208.222" height="14.873" fill="#B8A590"/>
<rect x="758.518" y="237.977" width="133.857" height="401.571" fill="#B8A590"/>
<rect x="550.299" y="44.6233" width="208.222" height="580.047" fill="#B8A590"/>
<rect x="654.409" y="29.7542" width="252.841" height="14.873" fill="#B8A590"/>
<rect x="877.506" y="193.36" width="14.873" height="44.619" fill="#B8A590"/>
<rect x="877.506" y="44.6233" width="14.873" height="104.111" fill="#B8A590"/>
<rect x="758.518" y="44.6233" width="118.984" height="193.349" fill="#B8A590"/>
<rect x="59.4955" y="624.664" width="208.222" height="14.873" fill="#DCC7AF"/>
<rect x="267.714" y="609.79" width="193.349" height="14.873" fill="#DCC7AF"/>
<rect x="475.937" y="624.664" width="193.349" height="14.873" fill="#DCC7AF"/>
<rect x="669.286" y="609.79" width="74.365" height="14.873" fill="#DCC7AF"/>
<rect x="758.52" y="624.664" width="118.984" height="14.873" fill="#DCC7AF"/>
<rect width="14.873" height="356.952" transform="matrix(-1 0 0 1 14.873 74.3658)" fill="#DCC7AF"/>
<rect x="14.873" y="431.32" width="14.873" height="178.476" fill="#DCC7AF"/>
<rect x="877.504" y="520.555" width="14.873" height="104.111" fill="#DCC7AF"/>
<rect x="892.383" y="223.097" width="14.873" height="297.46" fill="#DCC7AF"/>
<rect x="877.504" y="178.48" width="14.873" height="44.619" fill="#DCC7AF"/>
<rect x="862.634" y="133.857" width="14.873" height="44.619" fill="#DCC7AF"/>
<rect x="877.504" y="118.983" width="29.746" height="14.873" fill="#DCC7AF"/>
<rect x="907.252" y="29.7433" width="14.873" height="89.238" fill="#DCC7AF"/>
<rect x="892.383" y="14.8742" width="14.873" height="14.873" fill="#DCC7AF"/>
<rect x="639.537" width="252.841" height="14.873" fill="#DCC7AF"/>
<rect x="535.428" y="14.8742" width="104.111" height="14.873" fill="#DCC7AF"/>
<rect x="118.982" width="416.444" height="14.873" fill="#DCC7AF"/>
<rect x="74.3646" y="14.8742" width="44.619" height="14.873" fill="#DCC7AF"/>
<rect x="59.4955" y="29.7433" width="14.873" height="29.746" fill="#DCC7AF"/>
<rect x="14.873" y="59.4916" width="44.619" height="14.873" fill="#DCC7AF"/>
<rect x="29.7421" y="609.79" width="29.746" height="14.873" fill="#DCC7AF"/>
<rect x="118.982" y="14.8742" width="416.444" height="594.92" fill="#DCC7AF"/>
<rect x="74.3646" y="29.7433" width="44.619" height="580.047" fill="#DCC7AF"/>
<rect x="29.7421" y="74.3658" width="44.619" height="356.952" fill="#DCC7AF"/>
<rect x="14.873" y="74.3658" width="14.873" height="356.952" fill="#DCC7AF"/>
<rect x="877.504" y="223.097" width="14.873" height="297.46" fill="#DCC7AF"/>
<rect x="877.504" y="29.7433" width="29.746" height="89.238" fill="#DCC7AF"/>
<rect x="29.7421" y="431.32" width="44.619" height="178.476" fill="#DCC7AF"/>
<rect x="59.4955" y="609.79" width="208.222" height="14.873" fill="#DCC7AF"/>
<rect x="461.062" y="609.79" width="208.222" height="14.873" fill="#DCC7AF"/>
<rect x="743.646" y="223.097" width="133.857" height="401.571" fill="#DCC7AF"/>
<rect x="535.428" y="29.7433" width="208.222" height="580.047" fill="#DCC7AF"/>
<rect x="639.537" y="14.8742" width="252.841" height="14.873" fill="#DCC7AF"/>
<rect x="862.634" y="178.48" width="14.873" height="44.619" fill="#DCC7AF"/>
<rect x="862.634" y="29.7433" width="14.873" height="104.111" fill="#DCC7AF"/>
<rect x="743.646" y="29.7433" width="118.984" height="193.349" fill="#DCC7AF"/>
<rect x="59.4955" y="59.4916" width="14.873" height="14.873" fill="#DCC7AF"/>
<rect x="847.76" y="178.48" width="14.873" height="297.46" fill="#BAA48B"/>
<rect x="847.76" y="178.48" width="14.873" height="297.46" fill="#BAA48B"/>
<rect x="74.3646" y="178.48" width="14.873" height="297.46" fill="#BAA48B"/>
<rect x="89.2351" y="133.862" width="14.873" height="74.365" transform="rotate(-180 89.2351 133.862)" fill="#BAA48B"/>
<rect x="148.727" y="59.4965" width="14.873" height="59.492" transform="rotate(90 148.727 59.4965)" fill="#BAA48B"/>
<rect x="89.2344" y="89.2456" width="14.873" height="14.873" fill="#BAA48B"/>
<rect x="104.114" y="74.3714" width="14.873" height="14.873" fill="#BAA48B"/>
<rect x="118.983" y="104.115" width="14.873" height="14.873" fill="#BAA48B"/>
<rect width="14.873" height="74.365" transform="matrix(-1 0 0 1 89.2351 520.551)" fill="#BAA48B"/>
<rect width="14.873" height="59.492" transform="matrix(0 -1 -1 0 148.727 594.917)" fill="#BAA48B"/>
<rect width="14.873" height="14.873" transform="matrix(1 0 0 -1 89.2344 565.175)" fill="#BAA48B"/>
<rect width="14.873" height="14.873" transform="matrix(1 0 0 -1 104.114 580.049)" fill="#BAA48B"/>
<rect width="14.873" height="14.873" transform="matrix(1 0 0 -1 118.983 550.3)" fill="#BAA48B"/>
<rect x="847.764" y="520.551" width="14.873" height="74.365" fill="#BAA48B"/>
<rect x="788.273" y="594.917" width="14.873" height="59.492" transform="rotate(-90 788.273 594.917)" fill="#BAA48B"/>
<rect x="847.765" y="565.175" width="14.873" height="14.873" transform="rotate(180 847.765 565.175)" fill="#BAA48B"/>
<rect x="832.886" y="580.049" width="14.873" height="14.873" transform="rotate(180 832.886 580.049)" fill="#BAA48B"/>
<rect x="818.017" y="550.3" width="14.873" height="14.873" transform="rotate(180 818.017 550.3)" fill="#BAA48B"/>
<rect width="14.873" height="74.365" transform="matrix(1 0 0 -1 847.764 133.862)" fill="#BAA48B"/>
<rect width="14.873" height="59.492" transform="matrix(0 1 1 0 788.273 59.4965)" fill="#BAA48B"/>
<rect width="14.873" height="14.873" transform="matrix(-1 0 0 1 847.765 89.2456)" fill="#BAA48B"/>
<rect width="14.873" height="14.873" transform="matrix(-1 0 0 1 832.886 74.3714)" fill="#BAA48B"/>
<rect width="14.873" height="14.873" transform="matrix(-1 0 0 1 818.017 104.115)" fill="#BAA48B"/>
<rect width="14.873" height="297.46" transform="matrix(1 0 0 -1 892.383 520.555)" fill="#E9D2B8"/>
<rect x="892.383" y="624.664" width="14.873" height="104.111" transform="rotate(180 892.383 624.664)" fill="#E9D2B8"/>
<rect x="877.504" y="639.538" width="118.984" height="14.873" transform="rotate(180 877.504 639.538)" fill="#E9D2B8"/>
<rect x="758.52" y="624.664" width="89.238" height="14.873" transform="rotate(180 758.52 624.664)" fill="#E9D2B8"/>
<rect x="669.286" y="639.538" width="193.349" height="14.873" transform="rotate(180 669.286 639.538)" fill="#E9D2B8"/>
<rect x="475.937" y="624.664" width="208.222" height="14.873" transform="rotate(180 475.937 624.664)" fill="#E9D2B8"/>
<rect x="267.714" y="639.538" width="208.222" height="14.873" transform="rotate(180 267.714 639.538)" fill="#E9D2B8"/>
<rect x="59.4955" y="624.664" width="29.746" height="14.873" transform="rotate(180 59.4955 624.664)" fill="#E9D2B8"/>
<rect x="29.7421" y="609.795" width="14.873" height="178.476" transform="rotate(180 29.7421 609.795)" fill="#E9D2B8"/>
<rect x="14.873" y="431.32" width="14.873" height="356.952" transform="rotate(180 14.873 431.32)" fill="#E9D2B8"/>
<rect width="14.873" height="29.746" transform="matrix(1 0 0 -1 877.504 208.223)" fill="#E9D2B8"/>
<rect width="14.873" height="44.619" transform="matrix(1 0 0 -1 862.634 178.48)" fill="#E9D2B8"/>
<rect width="14.873" height="14.873" transform="matrix(1 0 0 -1 892.383 133.857)" fill="#E9D2B8"/>
<rect width="14.873" height="29.746" transform="matrix(1 0 0 -1 892.383 44.6174)" fill="#E9D2B8"/>
<rect width="14.873" height="29.746" transform="matrix(1 0 0 -1 877.504 29.7483)" fill="#E9D2B8"/>
<rect width="14.873" height="89.238" transform="matrix(1 0 0 -1 907.252 118.983)" fill="#E9D2B8"/>
<rect x="14.873" y="59.4967" width="44.619" height="14.873" fill="#E9D2B8"/>
<rect x="59.4955" y="29.7483" width="14.873" height="29.746" fill="#E9D2B8"/>
<rect x="74.3646" y="14.8742" width="44.619" height="14.873" fill="#E9D2B8"/>
<rect x="118.982" width="416.444" height="14.873" fill="#E9D2B8"/>
<rect x="535.428" y="14.8742" width="104.111" height="14.873" fill="#E9D2B8"/>
<rect x="639.537" width="237.968" height="14.873" fill="#E9D2B8"/>
<rect x="877.504" y="401.572" width="14.873" height="29.746" fill="#E9D2B8"/>
<rect x="877.504" y="267.715" width="14.873" height="14.873" fill="#E9D2B8"/>
<rect x="877.504" y="59.4967" width="29.746" height="14.873" fill="#E9D2B8"/>
<rect x="892.383" y="74.3658" width="14.873" height="14.873" fill="#E9D2B8"/>
<rect x="684.16" y="14.8742" width="104.111" height="14.873" fill="#E9D2B8"/>
<rect x="713.903" y="29.7483" width="29.746" height="14.873" fill="#E9D2B8"/>
<rect x="371.823" y="14.8742" width="29.746" height="14.873" fill="#E9D2B8"/>
<rect x="386.697" y="29.7483" width="14.873" height="14.873" fill="#E9D2B8"/>
<rect x="475.937" y="14.8742" width="44.619" height="14.873" fill="#E9D2B8"/>
<rect x="118.982" y="14.8742" width="14.873" height="14.873" fill="#E9D2B8"/>
<rect x="118.982" y="29.7483" width="29.746" height="14.873" fill="#E9D2B8"/>
<rect x="14.873" y="74.3658" width="14.873" height="104.111" fill="#E9D2B8"/>
<rect x="29.7421" y="74.3658" width="14.873" height="59.492" fill="#E9D2B8"/>
<rect x="14.873" y="297.463" width="14.873" height="74.365" fill="#E9D2B8"/>
<rect x="29.7421" y="356.955" width="14.873" height="44.619" fill="#E9D2B8"/>
<rect x="14.873" y="401.572" width="14.873" height="29.746" fill="#E9D2B8"/>
<rect x="29.7421" y="446.189" width="14.873" height="104.111" fill="#E9D2B8"/>
<rect x="29.7421" y="565.178" width="14.873" height="14.873" fill="#E9D2B8"/>
<rect x="118.982" y="609.795" width="44.619" height="14.873" fill="#E9D2B8"/>
<rect x="178.479" y="609.795" width="29.746" height="14.873" fill="#E9D2B8"/>
<rect x="356.953" y="594.921" width="59.492" height="14.873" fill="#E9D2B8"/>
<rect x="565.177" y="609.795" width="14.873" height="14.873" fill="#E9D2B8"/>
<rect x="624.663" y="609.795" width="29.746" height="14.873" fill="#E9D2B8"/>
<rect x="713.903" y="594.921" width="29.746" height="14.873" fill="#E9D2B8"/>
<rect x="818.017" y="609.795" width="14.873" height="14.873" fill="#E9D2B8"/>
</svg>
